<svg width="49" height="49" viewBox="0 0 49 49" fill="none" xmlns="http://www.w3.org/2000/svg">
<g clip-path="url(#clip0_0_579)">
<path d="M46 9.97497L40.1 15.875L33 8.77497L38.9 2.87497C37.5 2.47497 36.1 2.27497 34.5 2.37497C28.9 2.87497 24.4 7.87497 24.5 13.475C24.5 14.575 24.7 15.675 25 16.675L5.80001 33.675C2.90001 36.175 2.80001 40.675 5.50001 43.375C8.20001 46.075 12.6 45.975 15.2 43.075L32.2 23.875C33.9 24.375 35.8 24.575 37.8 24.175C41.8 23.375 45.1 20.375 46.2 16.475C46.7 14.175 46.6 11.975 46 9.97497Z" stroke="#3483FA" stroke-miterlimit="10" stroke-linecap="square"/>
</g>
<defs>
<clipPath id="clip0_0_579">
<rect width="48" height="48" fill="white" transform="translate(0.5 0.375)"/>
</clipPath>
</defs>
</svg>
