<svg width="48" height="48" viewBox="0 0 48 48" fill="none" xmlns="http://www.w3.org/2000/svg">
<g clip-path="url(#clip0_0_51)">
<path fill-rule="evenodd" clip-rule="evenodd" d="M24 47.5C36.9787 47.5 47.5 36.9787 47.5 24C47.5 11.0213 36.9787 0.5 24 0.5C11.0213 0.5 0.5 11.0213 0.5 24C0.5 36.9787 11.0213 47.5 24 47.5Z" stroke="#EEEEEE"/>
<path fill-rule="evenodd" clip-rule="evenodd" d="M14 24.5C14 24.2236 14.2251 24 14.5 24H17.5C17.7768 24 18 24.2217 18 24.5C18 24.7759 17.7744 25 17.5 25H14.5C14.2232 25 14 24.7779 14 24.5Z" fill="white"/>
<path fill-rule="evenodd" clip-rule="evenodd" d="M19 24.5C19 24.2236 19.2251 24 19.5 24H22.5C22.7764 24 23 24.2217 23 24.5C23 24.7759 22.7744 25 22.5 25H19.5C19.2232 25 19 24.7779 19 24.5Z" fill="white"/>
<path fill-rule="evenodd" clip-rule="evenodd" d="M24 24.5C24 24.2236 24.2256 24 24.5 24H27.5C27.7764 24 28 24.2217 28 24.5C28 24.7759 27.7744 25 27.5 25H24.5C24.2232 25 24 24.7779 24 24.5Z" fill="white"/>
<path fill-rule="evenodd" clip-rule="evenodd" d="M30 24.5C30 24.2236 30.2256 24 30.5 24H33.5C33.7768 24 34 24.2217 34 24.5C34 24.7759 33.7744 25 33.5 25H30.5C30.2232 25 30 24.7779 30 24.5Z" fill="white"/>
<path fill-rule="evenodd" clip-rule="evenodd" d="M13.584 16H34.416C35.2908 16 36 16.7092 36 17.584V30.416C36 31.2908 35.2908 32 34.416 32H13.584C12.7092 32 12 31.2908 12 30.416V17.584C12 16.7092 12.7092 16 13.584 16Z" fill="#5697FA"/>
<path d="M36 19H12V22H36V19Z" fill="#0864EE"/>
<path d="M34 23H14V26H34V23Z" fill="white"/>
<path d="M23.5 29H14.5C14.2239 29 14 29.2239 14 29.5C14 29.7761 14.2239 30 14.5 30H23.5C23.7761 30 24 29.7761 24 29.5C24 29.2239 23.7761 29 23.5 29Z" fill="#0864EE"/>
<path d="M28.5 27H14.5C14.2239 27 14 27.2239 14 27.5C14 27.7761 14.2239 28 14.5 28H28.5C28.7761 28 29 27.7761 29 27.5C29 27.2239 28.7761 27 28.5 27Z" fill="#0864EE"/>
</g>
<defs>
<clipPath id="clip0_0_51">
<rect width="48" height="48" fill="white"/>
</clipPath>
</defs>
</svg>
