<svg width="49" height="48" viewBox="0 0 49 48" fill="none" xmlns="http://www.w3.org/2000/svg">
<g clip-path="url(#clip0_0_94)">
<path fill-rule="evenodd" clip-rule="evenodd" d="M24.3333 47.5C37.312 47.5 47.8333 36.9787 47.8333 24C47.8333 11.0213 37.312 0.5 24.3333 0.5C11.3546 0.5 0.833313 11.0213 0.833313 24C0.833313 36.9787 11.3546 47.5 24.3333 47.5Z" stroke="#EEEEEE"/>
<path fill-rule="evenodd" clip-rule="evenodd" d="M20.1993 11.7717L35.5542 27.1266L26.105 36.5757L10.7502 21.2209L20.1993 11.7717Z" fill="#5697FA"/>
<path fill-rule="evenodd" clip-rule="evenodd" d="M14.6254 19.7079L18.6864 15.647C18.9976 16.1563 19.5587 16.4963 20.1993 16.4963C20.8399 16.4963 21.4011 16.1563 21.7123 15.647L31.6789 25.6136C31.1696 25.9248 30.8296 26.486 30.8296 27.1266C30.8296 27.7671 31.1696 28.3283 31.6789 28.6395L27.618 32.7005C27.3068 32.1911 26.7456 31.8511 26.105 31.8511C25.4644 31.8511 24.9033 32.1911 24.5921 32.7005L14.6254 22.7338C15.1348 22.4226 15.4748 21.8614 15.4748 21.2209C15.4748 20.5803 15.1348 20.0191 14.6254 19.7079Z" fill="white"/>
<path d="M23.1522 28.3077C25.4353 28.3077 27.2862 26.4568 27.2862 24.1737C27.2862 21.8905 25.4353 20.0397 23.1522 20.0397C20.869 20.0397 19.0182 21.8905 19.0182 24.1737C19.0182 26.4568 20.869 28.3077 23.1522 28.3077Z" fill="#3483FA"/>
<path fill-rule="evenodd" clip-rule="evenodd" d="M21.2729 25.6395L21.0085 25.9039C20.7918 26.1206 20.9197 26.5215 21.351 26.5172C21.3681 26.5167 21.3843 26.5097 21.3965 26.4977L21.7541 26.1401C22.4476 26.6927 23.2256 26.7144 23.7479 26.1921C24.2702 25.6698 24.2659 25.0348 23.7024 24.0964L23.425 23.6196C23.1779 23.1341 23.2256 22.9478 23.4012 22.7722C23.5767 22.5967 23.8975 22.588 24.1965 22.8329C24.2328 22.8629 24.2675 22.8948 24.3006 22.9283C24.3876 23.0187 24.4626 23.1199 24.5238 23.2295C24.6454 23.4479 24.7386 23.681 24.8012 23.923C24.8186 24.0045 24.8584 24.0796 24.9161 24.1397C25.0846 24.3049 25.3543 24.3049 25.5229 24.1397C25.638 24.0272 25.6769 23.8578 25.6226 23.7063C25.5431 23.3457 25.3855 23.0069 25.1609 22.7137L25.4947 22.38C25.5068 22.3678 25.5137 22.3515 25.5142 22.3344C25.5142 21.901 25.1068 21.784 24.9009 21.992L24.6842 22.2087C24.008 21.6561 23.2429 21.6323 22.7337 22.1524C22.2244 22.6725 22.2092 23.288 22.764 24.2351L23.0501 24.7032C23.308 25.1952 23.2668 25.3946 23.0782 25.5701C22.8615 25.7868 22.5711 25.763 22.2547 25.5094C22.2547 25.5094 22.2135 25.4726 22.155 25.4141C22.0631 25.323 21.979 25.2244 21.9036 25.1193C21.7106 24.8124 21.5816 24.4696 21.5243 24.1116C21.5198 23.9393 21.4137 23.7861 21.2541 23.7213C21.0944 23.6565 20.9115 23.6924 20.7882 23.8128C20.665 23.9332 20.6247 24.1151 20.6856 24.2763C20.7636 24.7728 20.9656 25.2417 21.2729 25.6395Z" fill="white"/>
<path fill-rule="evenodd" clip-rule="evenodd" d="M30.3333 17L29.0302 15.784C27.4147 14.2765 24.8381 14.3213 23.2733 15.8861L20.1993 18.9601C21.504 20.2647 24.3333 19.5506 24.3333 19.5506L26.105 17.7789L34.2833 26H37.3333V17H30.3333Z" fill="#0864EE"/>
<path d="M16.7349 22.6264C17.0813 22.28 17.5349 22.1067 17.9887 22.1067C18.4104 22.1067 18.8318 22.2564 19.1678 22.5558C19.7888 23.2524 19.766 24.3201 19.0972 24.9887L16.8802 27.206C16.2117 27.8742 15.1439 27.8987 14.4465 27.2754C13.8264 26.5791 13.8494 25.5119 14.5179 24.8437L16.7349 22.6264ZM19.0972 24.9887C19.4436 24.6423 19.8974 24.469 20.3513 24.469C20.7727 24.469 21.194 24.6184 21.5298 24.9181C22.1511 25.6144 22.1283 26.6824 21.4595 27.351L19.2425 29.5683C18.5743 30.2362 17.5074 30.261 16.8096 29.6385C16.1887 28.9425 16.2114 27.8745 16.8802 27.206L19.0972 24.9887ZM21.4595 27.351C21.8059 27.0046 22.2594 26.8313 22.7133 26.8313C23.1353 26.8313 23.5572 26.9813 23.8932 27.2816C24.5133 27.9778 24.4903 29.0447 23.8218 29.7132L21.6048 31.9305C20.9366 32.5985 19.8697 32.6233 19.1719 32.0008C18.5509 31.3048 18.5737 30.2368 19.2425 29.5683L21.4595 27.351ZM23.8218 29.7132C24.1682 29.3669 24.622 29.1935 25.0756 29.1935C25.4975 29.1935 25.9195 29.3435 26.2555 29.6438C26.8756 30.3401 26.8523 31.407 26.1841 32.0755L23.9668 34.2928C23.2991 34.9608 22.232 34.9856 21.5345 34.3634C20.9132 33.6671 20.936 32.5991 21.6048 31.9305L23.8218 29.7132Z" fill="#0864EE"/>
</g>
<defs>
<clipPath id="clip0_0_94">
<rect width="48" height="48" fill="white" transform="translate(0.333313)"/>
</clipPath>
</defs>
</svg>
