<svg width="48" height="48" viewBox="0 0 48 48" fill="none" xmlns="http://www.w3.org/2000/svg">
<g clip-path="url(#clip0_0_116)">
<path fill-rule="evenodd" clip-rule="evenodd" d="M24 47.5C36.9787 47.5 47.5 36.9787 47.5 24C47.5 11.0213 36.9787 0.5 24 0.5C11.0213 0.5 0.5 11.0213 0.5 24C0.5 36.9787 11.0213 47.5 24 47.5Z" stroke="#EEEEEE"/>
<path d="M24 36C30.6274 36 36 30.6274 36 24C36 17.3726 30.6274 12 24 12C17.3726 12 12 17.3726 12 24C12 30.6274 17.3726 36 24 36Z" fill="#5697FA"/>
<path d="M25 18H23V30H25V18Z" fill="white"/>
<path d="M30 25V23L18 23V25L30 25Z" fill="white"/>
</g>
<defs>
<clipPath id="clip0_0_116">
<rect width="48" height="48" fill="white"/>
</clipPath>
</defs>
</svg>
